
<svg width="754px" height="263px" viewBox="37 175 754 263" version="1.1" xmlns="http://www.w3.org/2000/svg" xmlns:xlink="http://www.w3.org/1999/xlink">
    <!-- Generator: Sketch 42 (36781) - http://www.bohemiancoding.com/sketch -->
    <desc>Created with Sketch.</desc>
    <defs></defs>
    <g id="Layer_2" stroke="none" stroke-width="1" fill="none" fill-rule="evenodd" transform="translate(37.000000, 175.000000)">
        <g id="Group">
            <g transform="translate(108.000000, 0.000000)">
                <ellipse id="Oval" fill="#878788" fill-rule="nonzero" cx="130.345" cy="99.932" rx="4.393" ry="4.159"></ellipse>
                <path d="M0.097,109.332 L122.907,6.068 L267.474,39.681 L437.494,26.106 C437.494,26.106 534.356,170.095 535.329,170.967 C536.303,171.839 635.517,95.399 635.517,95.399" id="Shape" stroke="#878788" stroke-width="1.8639"></path>
                <ellipse id="Oval" fill="#878788" fill-rule="nonzero" cx="124.852" cy="6.988" rx="5.836" ry="5.525"></ellipse>
                <ellipse id="Oval" fill="#878788" fill-rule="nonzero" cx="267.473" cy="39.681" rx="9.241" ry="8.75"></ellipse>
                <ellipse id="Oval" fill="#878788" fill-rule="nonzero" cx="437.493" cy="26.106" rx="20.427" ry="19.341"></ellipse>
                <ellipse id="Oval" fill="#878788" fill-rule="nonzero" cx="537.698" cy="167.246" rx="9.241" ry="8.747"></ellipse>
                <ellipse id="Oval" fill="#878788" fill-rule="nonzero" cx="635.517" cy="95.399" rx="5.836" ry="5.527"></ellipse>
                <path d="M4.275,115.329 L127.084,218.591 L228.245,184.978 L450.993,246.221 C450.993,246.221 570.447,10.401 571.421,9.529 C572.394,8.658 639.695,129.262 639.695,129.262" id="Shape" stroke="#878788" stroke-width="1.8639"></path>
                <path d="M143.856,217.433 C143.856,209.676 137.218,203.392 129.031,203.392 C120.843,203.392 114.204,209.676 114.204,217.433 C114.204,225.182 120.843,231.466 129.031,231.466 C137.218,231.466 143.856,225.182 143.856,217.433 Z" id="Shape" fill="#878788" fill-rule="nonzero"></path>
                <path d="M237.485,184.976 C237.485,180.144 233.348,176.229 228.244,176.229 C223.14,176.229 219.003,180.144 219.003,184.976 C219.003,189.811 223.14,193.726 228.244,193.726 C233.348,193.726 237.485,189.811 237.485,184.976 Z" id="Shape" fill="#878788" fill-rule="nonzero"></path>
                <ellipse id="Oval" fill="#878788" fill-rule="nonzero" cx="452.937" cy="246.221" rx="17.508" ry="16.577"></ellipse>
                <ellipse id="Oval" fill="#878788" fill-rule="nonzero" cx="571.42" cy="9.53" rx="9.241" ry="8.75"></ellipse>
                <ellipse id="Oval" fill="#878788" fill-rule="nonzero" cx="639.694" cy="129.262" rx="5.836" ry="5.527"></ellipse>
                <polyline id="Shape" stroke="#878788" stroke-width="1.8639" points="639.694 129.262 635.517 95.399 437.493 26.106 452.937 246.221 129.03 217.673 267.474 39.682"></polyline>
                <polyline id="Shape" stroke="#878788" stroke-width="1.8639" points="437.493 26.106 228.245 184.978 130.345 99.931 124.852 6.988"></polyline>
                <path d="M24.299,207.706 L130.345,99.931" id="Shape" stroke="#878788" stroke-width="1.8639"></path>
                <circle id="Oval" fill="#878788" fill-rule="nonzero" cx="24.3" cy="207.706" r="6.93"></circle>
            </g>
            <g transform="translate(190.000000, 28.000000)" id="Shape" fill-rule="nonzero" fill="#1E1E1C">
                <path d="M148.672,128.752 C141.633,128.752 135.119,126.994 128.431,123.472 L128.079,123.472 C127.728,125.058 127.199,127.346 127.199,127.346 L110.303,127.346 L110.303,0.438 L131.247,0.438 L131.247,45.148 L131.424,45.148 C137.231,42.504 141.457,41.274 148.673,41.274 C173.669,41.274 180.708,56.587 180.708,84.221 C180.707,106.752 175.955,128.752 148.672,128.752 M147.793,59.404 C140.577,59.404 134.944,61.165 131.246,64.333 C131.246,87.564 131.246,84.576 131.07,105.342 C134.765,107.983 140.4,110.629 147.968,110.629 C160.642,110.629 160.114,91.965 160.114,84.222 C160.115,62.924 156.243,59.404 147.793,59.404"></path>
                <path d="M240.55,127.346 L239.318,122.944 L238.967,123.12 C231.045,127.697 224.358,128.932 216.26,128.932 C202.708,128.932 192.32,119.955 192.32,104.638 C192.32,94.961 194.787,88.449 199.19,84.048 C207.633,76.125 222.244,75.42 236.503,75.072 L236.503,66.27 C236.503,61.867 234.038,59.055 225.236,59.055 C218.196,59.055 211.155,60.637 200.243,63.804 L199.011,44.795 C210.451,42.155 216.26,41.275 226.649,41.275 C242.666,41.275 257.094,46.381 257.094,63.628 L257.094,127.346 L240.55,127.346 L240.55,127.346 Z M216.086,94.079 C214.325,95.662 213.447,98.302 213.447,101.825 C213.447,107.807 215.731,111.155 221.893,111.155 C228.054,111.155 229.46,110.8 236.328,106.753 L236.503,89.855 C229.283,90.029 219.604,90.732 216.086,94.079 L216.086,94.079 Z"></path>
                <polygon points="324.156 127.17 304.793 92.142 304.618 91.965 297.753 100.062 297.753 127.17 276.809 127.17 276.634 0.438 297.753 0.438 297.753 69.083 297.93 69.261 301.45 64.332 318.171 43.037 344.399 43.037 317.821 75.598 347.743 127.17"></polygon>
                <path d="M408.292,127.346 L407.234,123.119 L406.882,123.299 C399.315,127.17 392.445,128.752 383.825,128.752 C372.384,128.752 357.421,123.648 357.421,106.752 L357.421,43.034 L378.192,43.034 L378.192,104.637 C378.192,108.865 381.713,111.152 385.233,111.152 C394.385,111.152 400.017,108.511 404.416,105.696 L404.416,43.034 L425.187,43.034 L425.187,127.346 L408.292,127.346 L408.292,127.346 Z"></path>
                <path d="M469.015,128.752 C463.911,128.752 453.353,128.403 444.373,126.994 L445.604,108.685 C454.76,110.096 463.38,111.151 469.014,111.151 C473.238,111.151 480.279,110.798 480.279,106.399 C480.455,102.173 478.341,100.767 475.174,98.83 L456.519,87.215 C450.183,83.168 441.205,77.534 441.205,63.276 C441.205,46.556 457.928,41.273 472.184,41.273 C477.288,41.273 486.089,41.273 495.243,42.86 L493.834,61.34 C484.678,59.933 477.992,59.053 472.361,59.053 C469.369,59.053 466.198,58.875 464.089,59.933 C462.858,60.459 461.976,62.046 461.976,63.63 C461.976,66.445 462.68,68.206 466.199,70.491 L482.746,80.878 C491.898,86.512 500.701,92.318 500.701,106.574 C500.699,123.119 484.153,128.752 469.015,128.752"></path>
                <path d="M73.513,127.17 L67.354,103.582 L29.513,103.582 L23.35,127.17 L0.644,127.17 L34.969,4.663 L61.721,4.663 L96.046,127.17 L73.513,127.17 Z M51.338,40.569 L48.522,26.487 L48.169,26.487 L45.352,40.569 L34.616,84.395 L62.074,84.222 L51.338,40.569 Z"></path>
            </g>
            <g transform="translate(0.000000, 4.000000)">
                <path d="M183.667,91.771 C183.667,142.424 142.603,183.487 91.951,183.487 C41.298,183.487 0.237,142.425 0.237,91.771 C0.237,41.121 41.298,0.057 91.951,0.057 C142.603,0.056 183.667,41.12 183.667,91.771 Z" id="Shape" fill="#BCBCBB" fill-rule="nonzero"></path>
                <circle id="Oval" fill="#B21C17" fill-rule="nonzero" cx="91.848" cy="91.772" r="82.308"></circle>
                <g transform="translate(19.000000, 47.000000)" id="Shape" fill-rule="nonzero" fill="#BCBCBB">
                    <g>
                        <path d="M47.09,53.398 L58.631,53.082 L57.89,61.021 L46.984,60.705 L46.984,65.682 C46.984,69.918 47.089,74.998 47.195,78.071 L37.771,78.071 C37.876,75.106 38.301,70.446 38.301,64.518 L38.301,60.81 L0.603,60.81 L0.392,59.962 L46.454,0.665 L47.09,0.665 L47.09,53.398 Z M38.512,21.842 L38.301,21.842 C34.806,27.137 18.711,47.998 14.9,53.293 L38.512,53.293 L38.512,21.842 Z"></path>
                        <path d="M72.917,41.114 C72.917,19.724 89.437,5.641 107.333,5.641 C126.181,5.641 140.159,19.724 140.159,40.268 C140.159,58.692 126.606,76.269 105.32,76.269 C89.331,76.27 72.917,64.623 72.917,41.114 Z M130.839,39.845 C130.839,25.973 120.144,13.9 106.377,13.9 C92.508,13.9 82.234,25.549 82.234,41.645 C82.234,54.034 90.494,68.012 106.801,68.012 C117.496,68.011 130.839,59.009 130.839,39.845 Z"></path>
                    </g>
                    <g transform="translate(43.000000, 96.000000)">
                        <polygon points="4.056 0.498 4.056 9.925 2.942 9.925 2.942 4.214 2.986 1.668 2.928 1.668 1.873 2.465 0.762 3.231 0.095 2.319 2.856 0.499 4.056 0.499"></polygon>
                        <path d="M10.608,6.107 C10.29,6.281 9.797,6.455 9.045,6.455 C7.485,6.455 6.358,5.543 6.358,3.578 C6.358,1.582 7.602,0.367 9.336,0.367 C11.361,0.367 12.171,1.742 12.171,3.851 C12.171,6.7 10.507,8.941 8.974,9.924 L7.37,9.924 L7.37,9.792 C8.96,8.854 10.06,7.711 10.653,6.136 L10.608,6.107 Z M10.94,4.993 C11.014,4.576 11.028,4.272 11.028,3.896 C11.028,2.016 10.276,1.364 9.233,1.364 C8.136,1.364 7.501,2.029 7.501,3.403 C7.501,4.82 8.15,5.47 9.322,5.47 C10.088,5.471 10.608,5.211 10.94,4.993 Z"></path>
                        <path d="M14.705,9.925 L14.705,9.533 C14.705,8.017 15.182,6.353 15.976,4.678 L16.728,3.057 L17.538,1.582 L17.538,1.525 C17.538,1.525 16.874,1.566 15.876,1.566 L13.041,1.566 L13.041,0.498 L18.493,0.498 L18.724,1.596 L17.017,5.052 C16.282,6.555 15.82,8.061 15.82,9.533 L15.82,9.925 L14.705,9.925 Z"></path>
                        <path d="M20.88,9.925 L20.88,9.533 C20.88,8.017 21.359,6.353 22.153,4.678 L22.904,3.057 L23.715,1.582 L23.715,1.525 C23.715,1.525 23.048,1.566 22.052,1.566 L19.217,1.566 L19.217,0.498 L24.669,0.498 L24.901,1.596 L23.195,5.052 C22.459,6.555 21.994,8.061 21.994,9.533 L21.994,9.925 L20.88,9.925 Z"></path>
                        <polygon points="25.67 6.122 25.67 5.11 29.848 5.11 29.848 6.122"></polygon>
                        <path d="M32.005,8.941 L33.48,8.913 L36.298,8.913 L36.298,9.925 L30.835,9.925 L30.646,8.913 C31.022,8.566 33.812,5.43 33.972,5.197 C34.667,4.402 34.955,3.736 34.955,2.926 C34.955,1.987 34.348,1.408 33.436,1.408 C32.511,1.408 32.105,2.072 31.962,2.769 L30.819,2.507 C31.064,1.379 31.962,0.425 33.524,0.425 C35.143,0.425 36.126,1.379 36.126,2.812 C36.126,3.881 35.648,4.865 34.782,5.892 C34.695,5.992 33.538,7.308 33.422,7.422 C33.336,7.511 32.122,8.796 32.005,8.882 L32.005,8.941 L32.005,8.941 Z"></path>
                        <path d="M37.822,5.268 C37.822,1.971 38.862,0.368 40.988,0.368 C43.128,0.368 44.068,1.887 44.068,5.168 C44.068,8.466 43.025,10.057 40.886,10.057 C38.73,10.056 37.822,8.537 37.822,5.268 Z M40.959,9.043 C42.419,9.043 42.911,7.827 42.911,5.268 C42.911,2.711 42.347,1.38 40.901,1.38 C39.456,1.38 38.977,2.609 38.977,5.167 C38.977,7.742 39.542,9.043 40.959,9.043 Z"></path>
                        <polygon points="49.029 0.498 49.029 9.925 47.918 9.925 47.918 4.214 47.961 1.668 47.901 1.668 46.847 2.465 45.736 3.231 45.069 2.319 47.83 0.499 49.029 0.499"></polygon>
                        <path d="M52.489,9.925 L52.489,9.533 C52.489,8.017 52.968,6.353 53.763,4.678 L54.514,3.057 L55.325,1.582 L55.325,1.525 C55.325,1.525 54.658,1.566 53.662,1.566 L50.827,1.566 L50.827,0.498 L56.277,0.498 L56.509,1.596 L54.803,5.052 C54.065,6.555 53.603,8.061 53.603,9.533 L53.603,9.925 L52.489,9.925 Z"></path>
                    </g>
                </g>
                <circle id="Oval" stroke="#878788" stroke-width="3.7031" cx="91.951" cy="91.772" r="82.308"></circle>
            </g>
        </g>
    </g>
</svg>
